<svg xmlns="http://www.w3.org/2000/svg" viewBox="0 0 898 240" fill="none">
  <path d="M16 232V8h38.2l40.4 125.8L134.8 8H173v224h-35.6V62.4l-38.6 122.2H76.2L37.6 62.4V232H16z" fill="#16243b"/>
  <path d="M282.8 236c-27.2 0-49.8-7.8-67.8-23.4l19.8-26.6c13.6 11.8 30.6 17.6 51 17.6 22 0 35-10.4 35-24.8 0-14.6-11.2-21.6-39.6-29.2-39.2-10.4-60.6-26.4-60.6-58.4 0-33.8 26.2-57.2 65.6-57.2 24.6 0 45.4 6.8 62.2 20.4l-18.6 26.6c-13-10.4-28-15.4-45-15.4-21.2 0-32.4 10-32.4 23.4 0 14 10.8 20.8 38.6 28 40.2 10.6 62 27.2 62 59.4 0 34.6-26.8 59.6-70.2 59.6z" fill="#16243b"/>
  <!-- E (three bars) -->
  <rect x="395" y="8" width="108" height="62" rx="2" fill="#80b8ff"/>
  <rect x="395" y="89" width="108" height="62" rx="2" fill="#80b8ff"/>
  <rect x="395" y="170" width="108" height="62" rx="2" fill="#80b8ff"/>
  <!-- T -->
  <path d="M516 41V8h150v33h-56v191h-38V41h-56z" fill="#16243b"/>
  <!-- Dot / Square -->
  <rect x="712" y="174" width="42" height="58" rx="2" fill="#80b8ff"/>
</svg>